<?xml version="1.0" standalone="no"?>
<!DOCTYPE svg PUBLIC "-//W3C//DTD SVG 20010904//EN"
 "http://www.w3.org/TR/2001/REC-SVG-20010904/DTD/svg10.dtd">
<svg version="1.0" xmlns="http://www.w3.org/2000/svg"
 width="960.000000pt" height="960.000000pt" viewBox="0 0 960.000000 960.000000"
 preserveAspectRatio="xMidYMid meet">

<g transform="translate(0.000000,960.000000) scale(0.100000,-0.100000)"
fill="#000000" stroke="none">
<path d="M3675 8096 c-6 -7 -64 -85 -129 -172 -374 -499 -1076 -1498 -1076
-1531 0 -5 102 -52 227 -105 179 -77 230 -95 239 -85 6 6 62 131 124 277 62
146 132 308 155 360 24 52 77 172 118 265 160 362 216 480 233 483 14 3 15 -3
10 -45 -3 -26 -11 -127 -16 -223 -31 -533 -53 -681 -144 -961 -84 -257 -249
-619 -282 -619 -9 0 -141 56 -294 125 -696 311 -1427 610 -2030 830 -80 30
-201 74 -269 99 -69 25 -126 46 -126 46 -3 0 7 -345 10 -348 1 -1 126 -49 276
-106 659 -249 1366 -545 2046 -857 350 -160 401 -184 426 -192 14 -5 27 13 71
101 179 357 335 773 381 1013 25 135 53 498 65 846 12 376 13 813 2 813 -4 0
-12 -6 -17 -14z"/>
<path d="M3957 8040 c-4 -25 -9 -166 -12 -315 -8 -376 -22 -659 -45 -940 -72
-857 -177 -1321 -469 -2075 -135 -350 -167 -425 -182 -428 -8 -1 -100 38 -204
89 -525 253 -862 412 -1210 572 -701 321 -1421 625 -1438 608 -8 -8 -30 -219
-31 -295 l-1 -40 185 -79 c102 -43 222 -94 267 -113 147 -61 751 -337 1198
-547 170 -79 681 -326 1082 -522 276 -134 265 -133 328 -48 57 78 134 237 283
588 158 372 177 425 232 650 75 306 114 605 130 1000 18 428 10 862 -20 1200
-21 229 -75 700 -84 730 -2 6 -6 -10 -9 -35z"/>
<path d="M6045 7864 c-209 -14 -532 -68 -716 -119 -353 -99 -569 -215 -770
-415 -202 -199 -333 -456 -376 -735 -21 -138 -13 -397 17 -515 67 -275 186
-515 367 -740 33 -41 111 -129 174 -194 l114 -119 -25 -16 c-72 -47 -275 -200
-420 -317 -535 -427 -910 -852 -1004 -1139 -13 -41 -24 -55 -60 -77 -50 -30
-95 -98 -103 -156 -11 -81 42 -178 114 -208 39 -17 109 -18 152 -3 26 9 41 8
77 -6 118 -45 353 -57 579 -31 499 59 1170 279 1904 625 107 50 197 91 202 91
15 0 90 -138 110 -200 28 -91 34 -201 15 -290 -70 -333 -378 -499 -926 -500
-351 0 -763 81 -1142 226 -50 19 -93 32 -95 30 -5 -5 -5 -1157 0 -1162 1 -1
54 -14 117 -29 273 -63 571 -109 940 -147 299 -30 829 -33 1040 -5 626 83
1079 271 1366 568 146 151 251 358 301 589 25 117 24 376 -1 515 -63 344 -239
697 -496 990 -38 44 -70 84 -70 88 0 4 8 10 18 14 24 9 262 170 427 291 654
476 1137 935 1334 1269 44 74 90 192 91 229 0 12 13 38 29 58 80 101 72 233
-19 293 -49 34 -144 32 -214 -3 l-51 -26 -140 11 c-194 15 -387 -1 -676 -55
-79 -15 -156 -29 -171 -32 l-28 -4 0 610 c0 573 -1 611 -17 616 -10 3 -85 14
-168 25 -622 84 -853 102 -1340 106 -220 1 -427 1 -460 -1z m1215 -1143 c177
-27 340 -68 530 -131 219 -74 249 -92 173 -106 -53 -9 -354 -95 -498 -142
-420 -139 -907 -342 -1355 -567 l-134 -67 -29 33 c-51 60 -119 169 -138 225
-73 208 -34 400 110 545 127 128 311 191 681 233 19 2 145 3 280 1 187 -2 277
-8 380 -24z m1688 -230 c18 -9 19 -18 15 -69 -10 -107 50 -178 161 -189 38 -4
56 -10 56 -20 0 -22 -74 -163 -122 -230 -213 -303 -642 -697 -1201 -1104 -174
-127 -487 -339 -500 -339 -5 0 -50 38 -101 83 -105 97 -417 357 -726 607 -384
311 -480 393 -469 404 2 2 81 42 174 89 806 402 1671 695 2260 766 50 6 101
13 115 15 47 8 318 -2 338 -13z m-3833 -1688 c138 -118 567 -474 819 -680 135
-111 266 -230 266 -243 0 -18 -594 -282 -869 -387 -591 -225 -1160 -358 -1455
-339 -95 6 -233 31 -248 45 -4 4 -3 31 3 61 19 92 -23 185 -102 226 -36 18
-36 34 1 113 160 338 624 801 1267 1264 135 96 136 97 157 79 12 -10 84 -73
161 -139z"/>
<path d="M426 6182 c-2 -4 -8 -82 -12 -173 l-7 -165 69 -27 c350 -134 1164
-485 1709 -737 110 -51 256 -118 325 -150 69 -32 248 -117 399 -189 150 -72
277 -128 282 -125 5 3 9 86 9 184 0 176 0 180 -23 195 -47 30 -757 359 -1167
540 -96 42 -209 92 -250 110 -165 74 -554 235 -890 369 -464 186 -438 177
-444 168z"/>
<path d="M2367 3923 c-13 -21 -47 -85 -77 -143 -250 -492 -670 -1211 -974
-1665 l-106 -160 102 -48 c434 -205 742 -347 754 -347 28 0 371 548 686 1095
99 172 207 368 363 658 108 200 126 240 114 251 -8 7 -61 34 -119 61 -58 27
-188 88 -288 137 -101 48 -186 88 -188 88 -2 0 -48 22 -104 49 -140 70 -135
69 -163 24z"/>
</g>
</svg>
